<?xml version="1.0" encoding="utf-8"?><!-- Uploaded to: SVG Repo, www.svgrepo.com, Generator: SVG Repo Mixer Tools -->
<svg version="1.1" id="Uploaded to svgrepo.com" xmlns="http://www.w3.org/2000/svg" xmlns:xlink="http://www.w3.org/1999/xlink" 
	 width="800px" height="800px" viewBox="0 0 32 32" xml:space="preserve">
<style type="text/css">
	.sharpcorners_een{fill:#111918;}
	.st0{fill:#111918;}
</style>
<path class="sharpcorners_een" d="M16,2C8.268,2,2,8.268,2,16s6.268,14,14,14s14-6.268,14-14S23.732,2,16,2z M16,28
	C9.373,28,4,22.627,4,16C4,9.373,9.373,4,16,4s12,5.373,12,12C28,22.627,22.627,28,16,28z M25,15h1.949
	C26.472,9.732,22.268,5.528,17,5.051V7h-2V5.051C9.732,5.528,5.528,9.732,5.051,15H7v2H5.051c0.478,5.268,4.681,9.472,9.949,9.949
	V25h2v1.949c5.268-0.478,9.472-4.681,9.949-9.949H25V15z M21,17h-6V9h2v6h4V17z"/>
</svg>